<svg width="980" height="980" viewBox="0 0 980 980" fill="none" xmlns="http://www.w3.org/2000/svg">
<g clip-path="url(#clip0)">
<path d="M465.366 50.6902C222.741 64.2954 37.0849 272.01 50.6901 514.634C64.2954 757.259 272.01 942.915 514.634 929.31C757.259 915.705 942.915 707.99 929.31 465.366C915.705 222.741 707.99 37.085 465.366 50.6902Z" stroke="#25283D" stroke-width="100"/>
<path d="M219 428H350C364.261 396.886 388.733 371.586 419.355 356.297C449.976 341.008 484.906 336.652 518.345 343.95C551.783 351.248 581.721 369.763 603.188 396.42C624.654 423.077 636.359 456.274 636.359 490.5C636.359 524.726 624.654 557.923 603.188 584.58C581.721 611.237 551.783 629.752 518.345 637.05C484.906 644.348 449.976 639.992 419.355 624.703C388.733 609.414 364.261 584.114 350 553H219C234.338 618.721 273.308 676.508 328.49 715.36C383.673 754.211 451.215 771.415 518.26 763.695C585.305 755.975 647.17 723.872 692.078 673.495C736.987 623.119 761.804 557.988 761.804 490.5C761.804 423.012 736.987 357.881 692.078 307.505C647.17 257.128 585.305 225.025 518.26 217.305C451.215 209.585 383.673 226.789 328.49 265.64C273.308 304.492 234.338 362.279 219 428Z" fill="#25283D"/>
</g>
<defs>
<clipPath id="clip0">
<rect width="980" height="980" fill="white"/>
</clipPath>
</defs>
</svg>
