<svg width="945" height="204" viewBox="0 0 945 204" fill="none" xmlns="http://www.w3.org/2000/svg">
<g clip-path="url(#clip0)">
<path d="M0 116.131C0 103.123 1.6748 91.6045 5.02442 81.5739C8.47253 71.5437 13.1029 63.786 18.9154 58.3007C24.8265 52.6587 31.378 49.8377 38.5698 49.8377C43.8898 49.8377 49.1112 51.7184 54.2341 55.4797C59.4553 59.0843 63.5936 63.9427 66.6472 70.0548V7.52271H83.6418V181.484H66.6472V161.973C63.8891 168.241 60.0465 173.413 55.121 177.488C50.2934 181.563 44.7271 183.6 38.422 183.6C31.3287 183.6 24.8265 180.779 18.9154 175.137C13.1029 169.339 8.47253 161.345 5.02442 151.159C1.6748 140.815 0 129.139 0 116.131ZM66.6472 116.601C66.6472 107.668 65.4654 99.9107 63.1007 93.3283C60.8349 86.7459 57.8302 81.7307 54.0864 78.2827C50.3427 74.8349 46.3034 73.1109 41.9687 73.1109C37.6339 73.1109 33.5946 74.8349 29.851 78.2827C26.1073 81.5739 23.0532 86.5105 20.6887 93.0929C18.4228 99.5189 17.2899 107.198 17.2899 116.131C17.2899 125.064 18.4228 132.9 20.6887 139.64C23.0532 146.379 26.1073 151.55 29.851 155.155C33.6931 158.603 37.7324 160.327 41.9687 160.327C46.3034 160.327 50.3427 158.603 54.0864 155.155C57.8302 151.707 60.8349 146.692 63.1007 140.11C65.4654 133.371 66.6472 125.535 66.6472 116.601Z" fill="#25283D"/>
<path d="M180.396 113.546C180.396 118.403 180.199 122.792 179.806 126.71H117.591C118.084 137.053 120.497 145.36 124.832 151.629C129.167 157.898 134.487 161.032 140.792 161.032C149.856 161.032 156.26 154.998 160.003 142.931H178.18C175.717 154.841 171.234 164.637 164.732 172.316C158.328 179.839 150.348 183.6 140.792 183.6C133.009 183.6 126.015 180.857 119.808 175.372C113.699 169.73 108.872 161.894 105.326 151.864C101.878 141.677 100.154 129.923 100.154 116.601C100.154 103.28 101.828 91.6045 105.178 81.5739C108.626 71.3869 113.404 63.5509 119.512 58.0655C125.719 52.5803 132.812 49.8376 140.792 49.8376C148.477 49.8376 155.323 52.502 161.333 57.8304C167.342 63.159 172.022 70.6817 175.372 80.3984C178.721 89.9589 180.396 101.007 180.396 113.546ZM162.811 105.082C162.713 95.2085 160.496 87.2942 156.161 81.3388C151.826 75.3834 146.457 72.4056 140.053 72.4056C134.241 72.4056 129.266 75.3834 125.128 81.3388C120.99 87.1378 118.527 95.0521 117.739 105.082H162.811Z" fill="#25283D"/>
<path d="M228.452 157.506L251.505 51.9534H269.386L238.353 181.484H218.255L187.369 51.9534H205.399L228.452 157.506Z" fill="#25283D"/>
<path d="M288.918 183.13C285.864 183.13 283.302 181.484 281.233 178.193C279.164 174.902 278.13 170.827 278.13 165.968C278.13 161.111 279.164 157.036 281.233 153.745C283.302 150.453 285.864 148.808 288.918 148.808C291.873 148.808 294.386 150.453 296.454 153.745C298.523 157.036 299.557 161.111 299.557 165.968C299.557 170.827 298.523 174.902 296.454 178.193C294.386 181.484 291.873 183.13 288.918 183.13Z" fill="white"/>
<path d="M351.902 73.8161H336.829V181.484H319.834V73.8161H310.229V51.9534H319.834V42.7852C319.834 27.8965 322.297 17.0827 327.223 10.3436C332.248 3.44788 340.08 0 350.72 0V22.3329C345.596 22.3329 342.001 23.9001 339.932 27.0346C337.863 30.0123 336.829 35.2625 336.829 42.7852V51.9534H351.902V73.8161Z" fill="#25283D"/>
<path d="M375.403 34.7923C372.349 34.7923 369.787 33.1468 367.719 29.8556C365.65 26.5644 364.615 22.4896 364.615 17.6312C364.615 12.7729 365.65 8.69804 367.719 5.40691C369.787 2.11574 372.349 0.470154 375.403 0.470154C378.358 0.470154 380.871 2.11574 382.94 5.40691C385.008 8.69804 386.043 12.7729 386.043 17.6312C386.043 22.4896 385.008 26.5644 382.94 29.8556C380.871 33.1468 378.358 34.7923 375.403 34.7923ZM383.678 51.9534V181.484H366.832V51.9534H383.678Z" fill="#25283D"/>
<path d="M446.878 49.8376C453.282 49.8376 458.996 51.9534 464.02 56.1849C469.144 60.4164 473.134 66.6853 475.991 74.9916C478.847 83.2978 480.276 93.3283 480.276 105.082V181.484H463.578V109.079C463.578 97.4814 461.755 88.6261 458.11 82.5142C454.464 76.2453 449.489 73.1109 443.184 73.1109C436.879 73.1109 431.855 76.2453 428.111 82.5142C424.466 88.6261 422.643 97.4814 422.643 109.079V181.484H405.797V51.9534H422.643V66.7637C425.402 61.4351 428.899 57.2819 433.135 54.3042C437.47 51.3265 442.051 49.8376 446.878 49.8376Z" fill="#25283D"/>
<path d="M496.149 116.131C496.149 103.123 497.824 91.6045 501.174 81.5739C504.622 71.5437 509.252 63.786 515.065 58.3007C520.976 52.6586 527.478 49.8376 534.571 49.8376C540.975 49.8376 546.541 51.8751 551.27 55.9498C556.099 59.8679 559.94 64.8046 562.797 70.76V51.9534H579.79V181.484H562.797V162.207C559.94 168.32 556.05 173.413 551.122 177.488C546.196 181.563 540.581 183.6 534.275 183.6C527.281 183.6 520.877 180.779 515.065 175.137C509.252 169.339 504.622 161.345 501.174 151.159C497.824 140.815 496.149 129.139 496.149 116.131ZM562.797 116.601C562.797 107.668 561.616 99.9107 559.248 93.3283C556.984 86.7459 553.979 81.7307 550.237 78.2827C546.492 74.8349 542.452 73.1109 538.118 73.1109C533.783 73.1109 529.744 74.8349 526 78.2827C522.256 81.5739 519.203 86.5105 516.838 93.0929C514.572 99.5189 513.439 107.198 513.439 116.131C513.439 125.064 514.572 132.9 516.838 139.64C519.203 146.379 522.256 151.55 526 155.155C529.842 158.603 533.882 160.327 538.118 160.327C542.452 160.327 546.492 158.603 550.237 155.155C553.979 151.707 556.984 146.692 559.248 140.11C561.616 133.371 562.797 125.535 562.797 116.601Z" fill="#25283D"/>
<path d="M643.001 49.8376C649.402 49.8376 655.116 51.9534 660.143 56.1849C665.263 60.4164 669.258 66.6853 672.115 74.9916C674.972 83.2978 676.4 93.3283 676.4 105.082V181.484H659.698V109.079C659.698 97.4814 657.874 88.6261 654.231 82.5142C650.589 76.2453 645.611 73.1109 639.303 73.1109C633.002 73.1109 627.974 76.2453 624.233 82.5142C620.585 88.6261 618.766 97.4814 618.766 109.079V181.484H601.921V51.9534H618.766V66.7637C621.524 61.4351 625.019 57.2819 629.255 54.3042C633.59 51.3265 638.172 49.8376 643.001 49.8376Z" fill="#25283D"/>
<path d="M692.273 116.601C692.273 103.28 693.949 91.6045 697.295 81.5739C700.745 71.3869 705.47 63.5509 711.48 58.0655C717.491 52.5803 724.386 49.8376 732.172 49.8376C742.023 49.8376 750.149 53.599 756.555 61.1216C763.054 68.4876 767.439 79.0663 769.708 92.8583H751.528C750.05 86.4323 747.687 81.4172 744.435 77.8126C741.188 74.208 737.094 72.4056 732.172 72.4056C725.276 72.4056 719.76 76.3237 715.618 84.1598C711.579 91.8391 709.563 102.653 709.563 116.601C709.563 130.55 711.579 141.442 715.618 149.278C719.76 157.114 725.276 161.032 732.172 161.032C741.924 161.032 748.379 154.215 751.528 140.58H769.708C767.34 153.745 762.906 164.245 756.406 172.081C749.901 179.761 741.825 183.6 732.172 183.6C724.386 183.6 717.491 180.857 711.48 175.372C705.47 169.73 700.745 161.894 697.295 151.864C693.949 141.677 692.273 129.923 692.273 116.601Z" fill="#25283D"/>
<path d="M861.12 113.546C861.12 118.403 860.928 122.792 860.532 126.71H798.316C798.811 137.053 801.223 145.36 805.558 151.629C809.892 157.898 815.211 161.032 821.518 161.032C830.584 161.032 836.984 154.998 840.731 142.931H858.906C856.445 154.841 851.961 164.637 845.456 172.316C839.056 179.839 831.072 183.6 821.518 183.6C813.733 183.6 806.739 180.857 800.536 175.372C794.426 169.73 789.597 161.894 786.053 151.864C782.603 141.677 780.878 129.923 780.878 116.601C780.878 103.28 782.553 91.6045 785.905 81.5739C789.35 71.3869 794.13 63.5509 800.239 58.0655C806.448 52.5803 813.541 49.8376 821.518 49.8376C829.204 49.8376 836.05 52.502 842.061 57.8304C848.072 63.159 852.747 70.6817 856.099 80.3984C859.45 89.9589 861.12 101.007 861.12 113.546ZM843.539 105.082C843.44 95.2085 841.22 87.2942 836.885 81.3388C832.551 75.3834 827.183 72.4056 820.782 72.4056C814.969 72.4056 809.991 75.3834 805.854 81.3388C801.717 87.1378 799.256 95.0521 798.465 105.082H843.539Z" fill="#25283D"/>
<path d="M288.92 183.13C285.866 183.13 283.304 181.484 281.236 178.193C279.167 174.902 278.132 170.828 278.132 165.969C278.132 161.111 279.167 157.036 281.236 153.745C283.304 150.453 285.866 148.808 288.92 148.808C291.876 148.808 294.388 150.453 296.457 153.745C298.525 157.036 299.56 161.111 299.56 165.969C299.56 170.828 298.525 174.902 296.457 178.193C294.388 181.484 291.876 183.13 288.92 183.13Z" fill="#49AA26"/>
<path d="M944.994 147.262C944.994 153.898 943.753 160.137 941.269 165.976C938.879 171.816 935.303 176.727 930.528 180.708C925.853 184.69 920.287 187.079 913.826 187.875V204.001H904.129V187.875C894.783 186.68 887.229 182.765 881.46 176.129C875.691 169.493 872.806 160.734 872.806 149.851H891.003C891.305 155.026 892.547 159.34 894.734 162.791C896.92 166.109 900.052 168.233 904.129 169.162V125.364C897.47 123.107 892.047 120.851 887.871 118.595C883.696 116.206 880.119 112.49 877.136 107.446C874.251 102.403 872.806 95.5017 872.806 86.7416C872.806 75.726 875.691 66.6345 881.46 59.4676C887.229 52.168 894.783 47.9209 904.129 46.7264V30.6008H913.826V46.7264C922.573 47.7882 929.583 51.5044 934.852 57.8749C940.225 64.1128 943.258 72.7397 943.951 83.7556H925.754C925.457 79.6412 924.265 75.9914 922.177 72.8061C920.089 69.4881 917.304 67.2318 913.826 66.0373V109.039C920.485 111.162 925.902 113.419 930.083 115.807C934.259 118.064 937.786 121.714 940.671 126.757C943.555 131.668 944.994 138.503 944.994 147.262ZM890.107 85.5474C890.107 90.9891 891.305 95.2357 893.69 98.2889C896.173 101.341 899.656 103.796 904.129 105.654V65.44C899.854 66.1037 896.426 68.1609 893.838 71.6116C891.355 75.0624 890.107 79.7076 890.107 85.5474ZM913.826 169.162C918.199 168.233 921.628 165.91 924.117 162.194C926.6 158.345 927.842 153.766 927.842 148.457C927.842 143.148 926.6 139.034 924.117 136.114C921.727 133.062 918.298 130.606 913.826 128.748V169.162Z" fill="#49AA26"/>
</g>
<defs>
<clipPath id="clip0">
<rect width="945" height="204" fill="white"/>
</clipPath>
</defs>
</svg>
