<svg width="163" height="135" viewBox="0 0 163 135" fill="none" xmlns="http://www.w3.org/2000/svg">
<g clip-path="url(#clip0)">
<path d="M7.64062 37.9688C6.23475 37.9688 5.09375 37.0238 5.09375 35.8594C5.09375 34.695 6.23475 33.75 7.64062 33.75C80.9091 33.75 125.133 33.75 137.959 17.8158C138.586 17.0396 139.747 16.6936 140.817 16.9679C141.886 17.2336 142.625 18.0521 142.625 18.9844V29.5313C142.625 30.6957 141.484 31.6407 140.078 31.6407C138.672 31.6407 137.531 30.6957 137.531 29.5313V24.5785C119.403 37.9688 75.8052 37.9688 7.64062 37.9688Z" fill="white"/>
<path d="M71.2055 46.651C62.1387 46.651 52.43 46.5919 42.1049 46.5371C31.1381 46.4738 19.616 46.4063 7.64062 46.4063C6.23475 46.4063 5.09375 45.4613 5.09375 44.2969C5.09375 43.1326 6.23475 42.1876 7.64062 42.1876C19.6313 42.1876 31.1636 42.255 42.1355 42.3141C96.0885 42.6052 138.698 42.8626 148.417 34.404C149.14 33.7796 150.245 33.5813 151.208 33.9019C152.176 34.2183 152.812 34.9988 152.812 35.8594V44.2969C152.812 45.4613 151.671 46.4063 150.266 46.4063C148.86 46.4063 147.719 45.4613 147.719 44.2969V40.0444C135.453 45.6891 108.95 46.651 71.2055 46.651V46.651Z" fill="white"/>
<path d="M81.5 101.25C88.6414 101.25 94.2344 96.6178 94.2344 90.7031C94.2344 85.9148 90.3071 82.4259 82.5646 80.3334L81.989 80.1773C79.0855 79.3927 76.4062 78.338 76.4062 75.9375C76.4062 73.4527 78.4998 71.7188 81.5 71.7188C85.086 71.7188 87.48 73.3134 87.5004 73.3303C88.5854 74.0812 90.1848 73.9631 91.0915 73.0772C91.9982 72.1828 91.8556 70.8581 90.7808 70.1072C90.628 70.0017 86.9809 67.5 81.5 67.5C75.688 67.5 71.3125 71.1281 71.3125 75.9375C71.3125 81.7341 78.1585 83.5861 80.4048 84.1852L80.9804 84.3413C86.4715 85.8263 89.1406 87.9103 89.1406 90.7031C89.1406 94.3102 85.8551 97.0312 81.5 97.0312C76.773 97.0312 74.0682 94.4494 73.35 93.6563C72.5044 92.7197 70.905 92.5383 69.7844 93.2302C68.6535 93.9305 68.4243 95.2509 69.2699 96.1833C70.3498 97.3772 74.4095 101.25 81.5 101.25V101.25Z" fill="white"/>
<path d="M81.5 105.469C82.9059 105.469 84.0469 104.524 84.0469 103.359V101.25C84.0469 100.086 82.9059 99.1406 81.5 99.1406C80.0941 99.1406 78.9531 100.086 78.9531 101.25V103.359C78.9531 104.524 80.0941 105.469 81.5 105.469Z" fill="white"/>
<path d="M81.5 69.6094C82.9059 69.6094 84.0469 68.6644 84.0469 67.5V65.3906C84.0469 64.2263 82.9059 63.2812 81.5 63.2812C80.0941 63.2812 78.9531 64.2263 78.9531 65.3906V67.5C78.9531 68.6644 80.0941 69.6094 81.5 69.6094Z" fill="white"/>
<path d="M7.64062 50.625C6.23475 50.625 5.09375 51.57 5.09375 52.7344C5.09375 53.8987 6.23475 54.8438 7.64062 54.8438H152.812V113.906H7.64062C6.23475 113.906 5.09375 114.851 5.09375 116.016C5.09375 117.18 6.23475 118.125 7.64062 118.125H155.359C156.765 118.125 157.906 117.18 157.906 116.016V52.7344C157.906 51.57 156.765 50.625 155.359 50.625H7.64062Z" fill="white"/>
<path d="M5.09375 61.1677V116.016C5.09375 117.18 6.23475 118.125 7.64062 118.125C9.0465 118.125 10.1875 117.18 10.1875 116.016V61.1677C10.1875 60.0033 9.0465 59.0583 7.64062 59.0583C6.23475 59.0583 5.09375 60.0033 5.09375 61.1677Z" fill="white"/>
<path d="M63.6719 109.688H27.7558C26.513 109.688 25.4535 108.941 25.2446 107.928C24.4907 104.19 21.3173 101.073 16.9724 99.7903C15.9587 99.495 15.2812 98.7019 15.2812 97.8075V70.9467C15.2812 70.0523 15.9587 69.2592 16.9724 68.9597C21.3224 67.6772 24.4907 64.5595 25.2446 60.8217C25.4484 59.8092 26.513 59.0625 27.7558 59.0625H63.6719C65.0777 59.0625 66.2188 60.0075 66.2188 61.1719C66.2188 62.3362 65.0777 63.2812 63.6719 63.2812H29.7781C28.3416 67.2511 24.9288 70.5586 20.375 72.3473V96.3984C24.9237 98.1914 28.3416 101.499 29.7781 105.469H63.6719C65.0777 105.469 66.2188 106.414 66.2188 107.578C66.2188 108.742 65.0777 109.688 63.6719 109.688Z" fill="white" stroke="white"/>
<path d="M99.3281 109.688H135.244C136.487 109.688 137.547 108.941 137.755 107.928C138.509 104.19 141.683 101.073 146.028 99.7903C147.041 99.495 147.719 98.7019 147.719 97.8075V70.9467C147.719 70.0523 147.041 69.2592 146.028 68.9597C141.678 67.6772 138.509 64.5595 137.755 60.8217C137.552 59.8092 136.487 59.0625 135.244 59.0625H99.3281C97.9223 59.0625 96.7812 60.0075 96.7812 61.1719C96.7812 62.3362 97.9223 63.2812 99.3281 63.2812H133.222C134.653 67.2511 138.071 70.5586 142.625 72.3473V96.3984C138.076 98.1914 134.658 101.495 133.222 105.465H99.3281C97.9223 105.465 96.7812 106.41 96.7812 107.574C96.7812 108.738 97.9223 109.688 99.3281 109.688V109.688Z" fill="white"/>
</g>
<defs>
<clipPath id="clip0">
<rect width="163" height="135" fill="white"/>
</clipPath>
</defs>
</svg>
