<svg width="153" height="103" viewBox="0 0 153 103" fill="none" xmlns="http://www.w3.org/2000/svg">
<path d="M2.64062 21.9688C1.23475 21.9688 0.09375 21.0238 0.09375 19.8594C0.09375 18.695 1.23475 17.75 2.64062 17.75C75.9091 17.75 120.133 17.75 132.959 1.8158C133.586 1.0396 134.747 0.693595 135.817 0.967895C136.886 1.2336 137.625 2.0521 137.625 2.9844V13.5313C137.625 14.6957 136.484 15.6407 135.078 15.6407C133.672 15.6407 132.531 14.6957 132.531 13.5313V8.5785C114.403 21.9688 70.8052 21.9688 2.64062 21.9688Z" fill="#25283D"/>
<path d="M66.2055 30.651C57.1387 30.651 47.43 30.5919 37.1049 30.5371C26.1381 30.4738 14.616 30.4063 2.64062 30.4063C1.23475 30.4063 0.09375 29.4613 0.09375 28.2969C0.09375 27.1326 1.23475 26.1876 2.64062 26.1876C14.6313 26.1876 26.1636 26.255 37.1355 26.3141C91.0885 26.6052 133.698 26.8626 143.417 18.404C144.14 17.7796 145.245 17.5813 146.208 17.9019C147.176 18.2183 147.812 18.9988 147.812 19.8594V28.2969C147.812 29.4613 146.671 30.4063 145.266 30.4063C143.86 30.4063 142.719 29.4613 142.719 28.2969V24.0444C130.453 29.6891 103.95 30.651 66.2055 30.651Z" fill="#25283D"/>
<path d="M76.5 85.25C83.6414 85.25 89.2344 80.6178 89.2344 74.7031C89.2344 69.9148 85.3071 66.4259 77.5646 64.3334L76.989 64.1773C74.0855 63.3927 71.4062 62.338 71.4062 59.9375C71.4062 57.4527 73.4998 55.7188 76.5 55.7188C80.086 55.7188 82.48 57.3134 82.5004 57.3303C83.5854 58.0812 85.1848 57.9631 86.0915 57.0772C86.9982 56.1828 86.8556 54.8581 85.7808 54.1072C85.628 54.0017 81.9809 51.5 76.5 51.5C70.688 51.5 66.3125 55.1281 66.3125 59.9375C66.3125 65.7341 73.1585 67.5861 75.4048 68.1852L75.9804 68.3413C81.4715 69.8263 84.1406 71.9103 84.1406 74.7031C84.1406 78.3102 80.8551 81.0312 76.5 81.0312C71.773 81.0312 69.0682 78.4494 68.35 77.6563C67.5044 76.7197 65.905 76.5383 64.7844 77.2302C63.6535 77.9305 63.4243 79.2509 64.2699 80.1833C65.3498 81.3772 69.4095 85.25 76.5 85.25Z" fill="#25283D"/>
<path d="M76.5 89.469C77.9059 89.469 79.0469 88.524 79.0469 87.359V85.25C79.0469 84.086 77.9059 83.1406 76.5 83.1406C75.0941 83.1406 73.9531 84.086 73.9531 85.25V87.359C73.9531 88.524 75.0941 89.469 76.5 89.469Z" fill="#25283D"/>
<path d="M76.5 53.6094C77.9059 53.6094 79.0469 52.6644 79.0469 51.5V49.3907C79.0469 48.2264 77.9059 47.2812 76.5 47.2812C75.0941 47.2812 73.9531 48.2264 73.9531 49.3907V51.5C73.9531 52.6644 75.0941 53.6094 76.5 53.6094Z" fill="#25283D"/>
<path d="M2.64062 34.625C1.23475 34.625 0.09375 35.57 0.09375 36.7344C0.09375 37.8987 1.23475 38.8438 2.64062 38.8438H147.812V97.906H2.64062C1.23475 97.906 0.09375 98.851 0.09375 100.016C0.09375 101.18 1.23475 102.125 2.64062 102.125H150.359C151.765 102.125 152.906 101.18 152.906 100.016V36.7344C152.906 35.57 151.765 34.625 150.359 34.625H2.64062Z" fill="#25283D"/>
<path d="M0.09375 45.1678V100.016C0.09375 101.18 1.23475 102.125 2.64062 102.125C4.0465 102.125 5.1875 101.18 5.1875 100.016V45.1678C5.1875 44.0034 4.0465 43.0583 2.64062 43.0583C1.23475 43.0583 0.09375 44.0034 0.09375 45.1678Z" fill="#25283D"/>
<path d="M58.6719 93.688H22.7558C21.513 93.688 20.4535 92.941 20.2446 91.928C19.4907 88.19 16.3173 85.073 11.9724 83.7903C10.9587 83.495 10.2812 82.7019 10.2812 81.8075V54.9467C10.2812 54.0523 10.9587 53.2592 11.9724 52.9597C16.3224 51.6772 19.4907 48.5595 20.2446 44.8217C20.4484 43.8092 21.513 43.0625 22.7558 43.0625H58.6719C60.0777 43.0625 61.2188 44.0075 61.2188 45.1719C61.2188 46.3362 60.0777 47.2812 58.6719 47.2812H24.7781C23.3416 51.2511 19.9288 54.5586 15.375 56.3473V80.3984C19.9237 82.1914 23.3416 85.499 24.7781 89.469H58.6719C60.0777 89.469 61.2188 90.414 61.2188 91.578C61.2188 92.742 60.0777 93.688 58.6719 93.688Z" fill="#25283D" stroke="#25283D"/>
<path d="M94.3281 93.688H130.244C131.487 93.688 132.547 92.941 132.755 91.928C133.509 88.19 136.683 85.073 141.028 83.7903C142.041 83.495 142.719 82.7019 142.719 81.8075V54.9467C142.719 54.0523 142.041 53.2592 141.028 52.9597C136.678 51.6772 133.509 48.5595 132.755 44.8217C132.552 43.8092 131.487 43.0625 130.244 43.0625H94.3281C92.9223 43.0625 91.7812 44.0075 91.7812 45.1719C91.7812 46.3362 92.9223 47.2812 94.3281 47.2812H128.222C129.653 51.2511 133.071 54.5586 137.625 56.3473V80.3984C133.076 82.1914 129.658 85.495 128.222 89.465H94.3281C92.9223 89.465 91.7812 90.41 91.7812 91.574C91.7812 92.738 92.9223 93.688 94.3281 93.688Z" fill="#25283D"/>
</svg>
