<svg width="59.99700000000001" height="59.99700000000001" xmlns="http://www.w3.org/2000/svg">

 <g>
  <title>background</title>
  <rect fill="none" id="canvas_background" height="402" width="582" y="-1" x="-1"/>
 </g>
 <g>
  <title>Layer 1</title>
  <path fill="#ffffff" stroke="#ffffff" id="svg_2" d="m59.206,0.293c-0.391,-0.391 -1.023,-0.391 -1.414,0l-3.708,3.707l-23.282,0l-29.27,29.511c-0.667,0.666 -1.034,1.553 -1.034,2.495s0.367,1.829 1.034,2.495l20.466,20.466c0.687,0.687 1.588,1.03 2.491,1.03c0.906,0 1.814,-0.346 2.508,-1.04l28.501,-29.271l0,-24.272l3.707,-3.707c0.391,-0.391 0.391,-1.023 0.001,-1.414zm-5.707,28.581l-27.925,28.679c-0.595,0.596 -1.565,0.596 -2.162,0l-20.466,-20.466c-0.289,-0.289 -0.448,-0.673 -0.448,-1.081s0.159,-0.792 0.451,-1.084l28.686,-28.922l20.45,0l-4.833,4.833c-0.791,-0.524 -1.736,-0.833 -2.753,-0.833c-2.757,0 -5,2.243 -5,5s2.243,5 5,5s5,-2.243 5,-5c0,-1.017 -0.309,-1.962 -0.833,-2.753l4.833,-4.833l0,21.46zm-6,-13.874c0,1.654 -1.346,3 -3,3s-3,-1.346 -3,-3s1.346,-3 3,-3c0.462,0 0.894,0.114 1.285,0.301l-1.992,1.992c-0.391,0.391 -0.391,1.023 0,1.414c0.195,0.195 0.451,0.293 0.707,0.293s0.512,-0.098 0.707,-0.293l1.992,-1.992c0.187,0.391 0.301,0.823 0.301,1.285z"/>
  <path fill="#ffffff" id="svg_3" d="m40.412,21.131c0.391,-0.391 0.391,-1.023 0,-1.414s-1.023,-0.391 -1.414,0l-0.746,0.746c-1.787,-1.43 -4.055,-2.133 -6.37,-1.937c-1.613,0.135 -3.073,0.914 -4.111,2.193c-1.068,1.317 -1.561,3.039 -1.35,4.724l0.761,6.09l-8.947,8.947c-2.05,-2.74 -1.838,-6.647 0.65,-9.136c0.391,-0.391 0.391,-1.023 0,-1.414s-1.023,-0.391 -1.414,0c-3.27,3.27 -3.49,8.449 -0.665,11.979l-1.142,1.142c-0.391,0.391 -0.391,1.023 0,1.414c0.195,0.195 0.451,0.293 0.707,0.293s0.512,-0.098 0.707,-0.293l1.143,-1.143c1.593,1.273 3.566,1.972 5.611,1.972c0.251,0 0.503,-0.011 0.756,-0.032c1.613,-0.134 3.073,-0.912 4.111,-2.192c1.069,-1.317 1.562,-3.04 1.351,-4.725l-0.761,-6.09l8.947,-8.947c2.049,2.74 1.838,6.648 -0.651,9.137c-0.391,0.391 -0.391,1.023 0,1.414s1.023,0.391 1.414,0c3.27,-3.271 3.489,-8.45 0.665,-11.98l0.748,-0.748zm-12.349,17.463c0.144,1.147 -0.191,2.319 -0.919,3.217c-0.692,0.853 -1.659,1.371 -2.724,1.46c-1.718,0.135 -3.408,-0.359 -4.771,-1.376l7.846,-7.847l0.568,4.546zm0.341,-13.399c-0.144,-1.146 0.191,-2.319 0.918,-3.216c0.692,-0.853 1.66,-1.371 2.725,-1.461c1.718,-0.141 3.409,0.358 4.772,1.376l-7.847,7.847l-0.568,-4.546z"/>
 </g>
</svg>